<svg xmlns="http://www.w3.org/2000/svg" viewBox="0 0 820 330" width="820" height="330" font-family="'Noto Sans SC','PingFang SC','Microsoft YaHei','Helvetica Neue',Arial,sans-serif">
<rect width="820" height="330" fill="#FFFFFF"/><rect x="0.5" y="0.5" width="819" height="329" fill="none" stroke="#D9DFE8"/>
<defs><marker id="arrow" viewBox="0 0 10 10" refX="9" refY="5" markerWidth="7" markerHeight="7" orient="auto"><path d="M0 0 L10 5 L0 10 z" fill="#5A6472"/></marker></defs>
<text x="40" y="38" font-size="18" font-weight="700" fill="#3C5488">A</text><text x="66" y="38" font-size="15" font-weight="600" fill="#252A33">Bulk 写入的有界流水线</text><rect x="42" y="75" width="150" height="78" rx="8" fill="#4DBBD5" fill-opacity="0.12" stroke="#4DBBD5" stroke-width="1.5"/><text x="117.0" y="112.0" text-anchor="middle" font-size="14" font-weight="500" fill="#252A33">MySQL / MQ</text><text x="117.0" y="132.0" text-anchor="middle" font-size="11" fill="#6B7280">事件生产者</text><rect x="242" y="75" width="150" height="78" rx="8" fill="#3C5488" fill-opacity="0.12" stroke="#3C5488" stroke-width="1.5"/><text x="317.0" y="112.0" text-anchor="middle" font-size="14" font-weight="500" fill="#252A33">有界队列</text><text x="317.0" y="132.0" text-anchor="middle" font-size="11" fill="#6B7280">500–2,000 条</text><rect x="442" y="75" width="150" height="78" rx="8" fill="#F39B7F" fill-opacity="0.12" stroke="#F39B7F" stroke-width="1.5"/><text x="517.0" y="112.0" text-anchor="middle" font-size="14" font-weight="500" fill="#252A33">Bulk 请求</text><text x="517.0" y="132.0" text-anchor="middle" font-size="11" fill="#6B7280">5–15 MB / 批</text><rect x="642" y="75" width="136" height="78" rx="8" fill="#00A087" fill-opacity="0.12" stroke="#00A087" stroke-width="1.5"/><text x="710.0" y="112.0" text-anchor="middle" font-size="14" font-weight="500" fill="#252A33">ES 分片</text><text x="710.0" y="132.0" text-anchor="middle" font-size="11" fill="#6B7280">write 线程池</text><line x1="198" y1="114" x2="236" y2="114" stroke="#5A6472" stroke-width="1.5" marker-end="url(#arrow)"/><line x1="398" y1="114" x2="436" y2="114" stroke="#5A6472" stroke-width="1.5" marker-end="url(#arrow)"/><line x1="598" y1="114" x2="636" y2="114" stroke="#5A6472" stroke-width="1.5" marker-end="url(#arrow)"/><path d="M710 166 C710 222 320 222 320 166" fill="none" stroke="#F39B7F" stroke-width="1.5" stroke-dasharray="5 4" marker-end="url(#arrow)"/><text x="515" y="214" text-anchor="middle" font-size="11" fill="#6B7280">429 / 队列满 → 降速、退避、重试</text><rect x="42" y="247" width="736" height="34" rx="7" fill="#F4F7FA" stroke="#D9DFE8"/><text x="410" y="269" text-anchor="middle" font-size="13" fill="#252A33">指标：吞吐 · P95/P99 · rejected · GC · merge · 失败明细</text><text x="410.0" y="314" text-anchor="middle" font-size="12" fill="#6B7280">图 1｜Bulk 写入以有界队列和反馈回路实现背压</text></svg>
